<?xml version="1.0" standalone="no"?>
<!DOCTYPE svg PUBLIC "-//W3C//DTD SVG 20010904//EN"
 "http://www.w3.org/TR/2001/REC-SVG-20010904/DTD/svg10.dtd">
<svg version="1.0" xmlns="http://www.w3.org/2000/svg"
 width="512.000000pt" height="512.000000pt" viewBox="0 0 512.000000 512.000000"
 preserveAspectRatio="xMidYMid meet">

<g transform="translate(0.000000,512.000000) scale(0.100000,-0.100000)"
fill="#000000" stroke="none">
<path d="M1420 3650 l0 -310 313 2 312 3 0 305 0 305 -312 3 -313 2 0 -310z"/>
<path d="M2330 3651 l0 -311 293 0 c336 0 401 -10 536 -80 181 -94 309 -257
357 -455 24 -95 23 -295 0 -390 -50 -206 -187 -379 -371 -469 -132 -65 -157
-69 -502 -73 l-313 -5 0 -310 0 -311 323 6 c352 5 424 14 597 69 200 64 356
157 509 303 201 194 325 422 388 715 26 121 25 430 -1 550 -61 279 -172 488
-360 676 -154 154 -324 258 -526 322 -176 56 -245 64 -602 69 l-328 5 0 -311z"/>
<path d="M1420 2170 l0 -920 313 2 312 3 0 915 0 915 -312 3 -313 2 0 -920z"/>
</g>
</svg>
